<svg width="51" height="50" viewBox="0 0 51 50" fill="none" xmlns="http://www.w3.org/2000/svg">
<path d="M27.7933 50V47.2067C29.892 46.8915 31.8608 46.3561 33.6997 45.6006C35.5386 44.845 37.2011 43.8799 38.6871 42.7053L40.6425 44.7144C38.7765 46.186 36.7835 47.3471 34.6634 48.1976C32.5438 49.0482 30.2537 49.649 27.7933 50ZM44.7144 40.6641L42.7374 38.6871C43.9479 37.1508 44.9255 35.4632 45.6704 33.6243C46.4153 31.7854 46.9274 29.8417 47.2067 27.7933H50.0321C49.7672 30.1425 49.1827 32.4013 48.2786 34.5698C47.3741 36.7384 46.186 38.7698 44.7144 40.6641ZM47.2067 22.2067C46.9274 20.1117 46.4153 18.1448 45.6704 16.3059C44.9255 14.4669 43.9479 12.8026 42.7374 11.3128L44.7682 9.38967C46.358 11.5098 47.5477 13.5044 48.3373 15.3736C49.1269 17.2432 49.6918 19.5209 50.0321 22.2067H47.2067ZM22.2067 50C15.8715 49.1979 10.5866 46.4351 6.35195 41.7116C2.11732 36.9881 0 31.4176 0 25C0 18.5717 2.10847 12.987 6.32542 8.24581C10.5419 3.50419 15.8357 0.755587 22.2067 0V2.7933C16.6201 3.58473 11.9879 6.07542 8.31006 10.2654C4.63222 14.4553 2.7933 19.3669 2.7933 25C2.7933 30.6331 4.63222 35.5331 8.31006 39.6997C11.9879 43.8664 16.6201 46.3687 22.2067 47.2067V50ZM38.8268 7.40223C37.1508 6.14525 35.3906 5.12104 33.5461 4.32961C31.702 3.53817 29.8203 3.02607 27.9008 2.7933V0C30.2537 0.304469 32.4811 0.890829 34.5831 1.75908C36.6851 2.62779 38.7048 3.80331 40.6425 5.28561L38.8268 7.40223ZM25.0161 36.227C22.8531 34.3396 20.8082 32.3431 18.8813 30.2374C16.9548 28.1318 15.9916 25.6555 15.9916 22.8087C15.9916 20.2514 16.8592 18.0703 18.5943 16.2654C20.3294 14.4604 22.47 13.558 25.0161 13.558C27.5622 13.558 29.7027 14.4604 31.4379 16.2654C33.173 18.0703 34.0405 20.2514 34.0405 22.8087C34.0405 25.6555 33.0773 28.1318 31.1508 30.2374C29.2239 32.3431 27.179 34.3396 25.0161 36.227ZM25.0161 24.9462C25.7107 24.9462 26.2863 24.7179 26.743 24.2612C27.1997 23.8049 27.4281 23.2293 27.4281 22.5342C27.4281 21.8503 27.1997 21.2775 26.743 20.8156C26.2863 20.3534 25.7107 20.1222 25.0161 20.1222C24.3215 20.1222 23.7458 20.3534 23.2891 20.8156C22.8324 21.2775 22.604 21.8503 22.604 22.5342C22.604 23.2293 22.8324 23.8049 23.2891 24.2612C23.7458 24.7179 24.3215 24.9462 25.0161 24.9462Z" fill="black"/>
</svg>
