<svg width="60" height="50" viewBox="0 0 60 50" fill="none" xmlns="http://www.w3.org/2000/svg">
<path d="M49.0864 50L46.906 47.8196L53.4163 41.1692H38.0023V38.0023H53.4163L46.906 31.3519L49.0864 29.1716L59.5006 39.5858L49.0864 50ZM5.11607 41.1692C3.70892 41.1692 2.50446 40.6683 1.50268 39.6665C0.500892 38.6647 0 37.4603 0 36.0531V5.11607C0 3.70892 0.500892 2.50446 1.50268 1.50267C2.50446 0.50089 3.70892 0 5.11607 0H45.5537C46.9609 0 48.1653 0.50089 49.1671 1.50267C50.1689 2.50446 50.6698 3.70892 50.6698 5.11607V22.2409C50.4059 22.2166 50.142 22.1984 49.8781 22.1862C49.6142 22.1741 49.3503 22.168 49.0864 22.168C48.8225 22.168 48.5586 22.1712 48.2946 22.1775C48.0307 22.1833 47.7668 22.1984 47.5029 22.2227V5.53013L25.0182 21.8023L3.16686 5.54834V36.0531C3.16686 36.6216 3.34948 37.0887 3.71473 37.4545C4.0805 37.8197 4.54761 38.0023 5.11607 38.0023H31.7232C31.699 38.2663 31.6839 38.5302 31.6781 38.7941C31.6718 39.058 31.6686 39.3219 31.6686 39.5858C31.6686 39.8497 31.6747 40.1136 31.6868 40.3775C31.699 40.6414 31.7172 40.9053 31.7415 41.1692H5.11607ZM5.20078 3.16686L25.0182 17.9419L45.4326 3.16686H5.20078Z" fill="black"/>
</svg>
