<svg width="49" height="50" viewBox="0 0 49 50" fill="none" xmlns="http://www.w3.org/2000/svg">
<path d="M45.6879 24.1258C45.3379 18.4111 43.1631 13.554 39.1636 9.55455C35.1641 5.55455 30.3071 3.3798 24.5924 3.0303V0C27.8753 0.155556 30.9472 0.884849 33.8083 2.18788C36.6694 3.49141 39.179 5.22222 41.3371 7.3803C43.4952 9.53838 45.226 12.0482 46.5295 14.9098C47.8331 17.771 48.5626 20.8429 48.7182 24.1258H45.6879ZM33.5667 24.1258C33.2167 21.7949 32.2162 19.7942 30.5652 18.1235C28.9141 16.4528 26.9232 15.4621 24.5924 15.1515V12.1212C27.7742 12.4318 30.4828 13.7149 32.7182 15.9705C34.954 18.2255 36.247 20.9439 36.597 24.1258H33.5667ZM45.2447 50C40.1361 50 34.8992 48.721 29.5341 46.1629C24.1689 43.6043 19.1747 40.0134 14.5515 35.3902C9.96717 30.7674 6.39571 25.7831 3.83712 20.4371C1.27904 15.0912 0 9.86389 0 4.7553C0 3.84621 0.30303 3.07879 0.909091 2.45303C1.51515 1.82778 2.27273 1.51515 3.18182 1.51515H10.6758C11.4995 1.51515 12.2182 1.7745 12.8318 2.29318C13.446 2.81187 13.8619 3.47727 14.0795 4.28939L15.5826 11.5152C15.7225 12.3621 15.6972 13.1023 15.5068 13.7356C15.3164 14.3689 14.9803 14.8876 14.4985 15.2917L7.85 21.4917C9.09293 23.7487 10.4672 25.8457 11.9727 27.7826C13.4783 29.7194 15.0838 31.554 16.7894 33.2864C18.549 35.0465 20.4429 36.6831 22.4712 38.1962C24.499 39.7093 26.725 41.1381 29.1492 42.4826L35.6295 35.8856C36.123 35.3533 36.6775 35.0028 37.2932 34.8341C37.9088 34.6649 38.5896 34.6308 39.3356 34.7318L45.7106 36.0371C46.5343 36.2391 47.2028 36.654 47.7159 37.2818C48.2285 37.9091 48.4848 38.6288 48.4848 39.4409V46.8182C48.4848 47.7273 48.1722 48.4848 47.547 49.0909C46.9212 49.697 46.1538 50 45.2447 50ZM6.42803 18.6477L12.2439 13.2985C12.4379 13.1429 12.5641 12.9293 12.6227 12.6576C12.6808 12.3854 12.671 12.1328 12.5932 11.9L11.247 5.47803C11.1692 5.16692 11.0333 4.93384 10.8394 4.77879C10.6449 4.62323 10.3924 4.54545 10.0818 4.54545H3.86364C3.6303 4.54545 3.43611 4.62323 3.28106 4.77879C3.1255 4.93384 3.04773 5.12803 3.04773 5.36137C3.10581 7.43207 3.4303 9.59394 4.02121 11.847C4.61162 14.1005 5.41389 16.3674 6.42803 18.6477ZM32.0341 43.9045C34.0811 44.9187 36.2634 45.6684 38.5811 46.1538C40.8982 46.6396 42.9174 46.9 44.6386 46.9348C44.872 46.9348 45.0662 46.8571 45.2212 46.7015C45.3768 46.546 45.4545 46.3518 45.4545 46.1189V40.0348C45.4545 39.7242 45.3768 39.4717 45.2212 39.2773C45.0662 39.0833 44.8331 38.9475 44.522 38.8697L38.9159 37.7212C38.6831 37.6434 38.4793 37.6338 38.3045 37.6924C38.1293 37.7505 37.9447 37.8768 37.7508 38.0712L32.0341 43.9045Z" fill="black"/>
</svg>
