<svg width="63" height="51" viewBox="0 0 63 51" fill="none" xmlns="http://www.w3.org/2000/svg">
<path d="M41.736 0.5C45.7906 1.34138 45.2495 7.19014 41.0025 6.95012C37.8644 6.77341 36.9506 2.78148 39.4428 1.04861L40.8102 0.5L41.736 0.5ZM40.9044 2.50058C39.3393 2.85401 39.8155 5.37287 41.5039 5.07878C43.1645 4.78997 42.7706 2.07857 40.9044 2.50058Z" fill="black"/>
<path d="M61.6842 17.7679C61.8314 17.9143 61.9654 18.3653 61.9892 18.5829C62.3301 21.6411 62.037 25.7887 61.4149 28.8034C59.7424 36.9086 54.5949 42.2905 46.2642 43.604C43.4364 44.0497 40.7439 43.9073 37.9122 43.6554C37.1748 45.743 36.558 47.8583 36.2118 50.0541C35.8962 50.7069 34.6706 50.641 34.4876 49.8616C34.1839 48.5758 35.4346 44.8265 35.9479 43.4774C38.2955 37.3121 43.3131 31.0624 48.5574 27.0718C48.8373 26.8582 49.6967 26.1487 49.9368 26.0722C50.7936 25.7979 51.535 26.6182 51.1676 27.4305C47.6568 30.2514 44.3927 33.2147 41.7626 36.8927C41.4018 37.3965 38.6536 41.5164 38.9587 41.7999C43.6141 42.247 48.6171 41.8527 52.6319 39.2771C59.1986 35.0636 60.4971 26.6472 60.0767 19.4322L59.9175 19.3267C50.3639 18.4747 38.4029 20.4898 35.5553 31.1178C34.7913 33.9703 34.794 36.8308 34.985 39.7584C34.1069 41.1748 33.1307 40.3664 33.0047 38.9698C31.5113 22.4113 44.8662 15.8398 59.6695 17.3366C60.1549 17.3854 61.3911 17.4738 61.6855 17.7666L61.6842 17.7679Z" fill="black"/>
<path d="M20.2957 18.9151C22.3887 8.24889 36.7888 5.4188 42.9589 14.4788C43.3926 15.1157 44.1447 16.0784 43.4656 16.751C42.2904 17.9181 41.2294 15.2911 40.5423 14.5117C34.6839 7.86512 23.4683 11.0961 22.0412 19.7578C22.9232 20.346 25.7934 22.4138 25.6581 23.5348C25.6104 23.9238 25.1356 24.4171 24.735 24.4236C24.0599 24.4355 22.9139 22.7884 22.272 22.278C14.7079 16.271 4.02155 24.785 8.44622 33.5192C12.1918 40.911 21.768 37.651 28.405 38.4119C29.5934 38.5635 29.5841 40.1659 28.4289 40.3452C21.2945 39.7808 12.4796 42.5832 7.61593 35.7902C1.27072 26.9293 10.1068 15.6222 20.2957 18.9138V18.9151Z" fill="black"/>
<path d="M3.58786 40.1265C7.9608 39.5291 8.58816 45.8777 4.84523 46.5054C0.156617 47.2927 -0.550323 40.6923 3.58786 40.1265ZM3.71386 42.0928C2.28009 42.4251 2.59178 44.8148 4.18471 44.6684C6.04689 44.4956 5.66623 41.6418 3.71386 42.0928Z" fill="black"/>
<path d="M12.1374 13.4742C8.64519 9.99527 14.9533 5.28197 17.3088 9.58381C19.1286 12.9058 14.7092 16.0366 12.1374 13.4742ZM14.1747 9.86735C12.1733 10.2498 13.424 13.4491 15.2013 12.2069C16.4679 11.322 15.4957 9.61415 14.1747 9.86735Z" fill="black"/>
<path d="M23.5599 32.2428C24.9844 33.6578 22.8238 35.8074 21.3993 34.3898C20.0066 33.0051 22.2044 30.895 23.5599 32.2428Z" fill="black"/>
<path d="M31.6426 0.792967C33.3682 0.440855 34.2661 2.62343 32.7833 3.50569C30.7646 4.70577 29.4913 1.23212 31.6426 0.792967Z" fill="black"/>
<path d="M15.4931 26.4402C17.7041 25.9377 18.1139 28.7797 16.5979 29.2465C14.2848 29.96 13.8948 26.8028 15.4931 26.4402Z" fill="black"/>
<path d="M3.58123 13.5508C5.86916 13.0312 6.26441 16.0169 4.44998 16.3861C2.34773 16.8147 2.01482 13.9068 3.58123 13.5508Z" fill="black"/>
<path d="M29.6624 16.9664C31.7169 16.7369 31.8813 19.9257 29.8852 19.9745C27.889 20.0233 27.8347 17.1708 29.6624 16.9664Z" fill="black"/>
<path d="M12.5857 47.2242C15.1456 46.7863 14.9479 50.8297 12.3483 50.0279C11.0697 49.6336 11.1586 47.4682 12.5857 47.2242Z" fill="black"/>
</svg>
