<svg width="50" height="51" viewBox="0 0 50 51" fill="none" xmlns="http://www.w3.org/2000/svg">
<path d="M-0.00305176 32.3928C1.93929 26.3662 9.76008 31.2316 4.84928 35.5729L5.22828 40.138L7.84092 38.2752C8.97487 37.612 10.2338 37.2683 11.4635 36.8449L11.7448 35.5729C10.2137 34.57 9.45466 33.0359 9.65323 31.1852C7.87619 31.5048 6.079 30.1571 6.47815 28.2621C6.54972 27.9235 7.01338 27.2935 7.01338 27.1312C7.01338 26.5748 6.50839 25.4741 6.4469 24.7857C6.31184 23.2798 6.97306 22.2436 8.04452 21.278V8.50304C9.53026 2.16396 17.9558 6.89836 12.8958 11.4302L13.5198 18.2148C15.3906 18.5292 17.4226 18.0434 19.2904 18.4799C19.9284 18.629 20.5332 18.9395 21.1208 19.2137L21.402 17.867C19.871 16.8641 19.112 15.33 19.3105 13.4794C17.5395 13.7989 15.7363 12.4563 16.1354 10.5563C16.2131 10.1873 16.6364 9.67731 16.6676 9.49084C16.7221 9.16325 16.1213 7.50919 16.0881 6.89433C16.0236 5.70796 16.5658 4.50143 17.5083 3.78073C17.9588 3.43601 18.4941 3.35235 18.8368 3.12253C19.0222 2.99855 19.5293 2.30205 19.8125 2.06014C21.8738 0.302252 25.3129 0.410104 27.9155 0.601617C31.3335 0.8526 34.048 3.96821 33.8 7.39932C33.7546 8.02627 33.296 9.09572 33.3031 9.50999C33.3071 9.764 33.6811 10.2236 33.7516 10.5583C34.1508 12.4532 32.3536 13.7999 30.5765 13.4814C30.7751 15.332 30.0161 16.8661 28.485 17.869L28.7854 19.1955L31.4444 20.0906C35.8714 19.5362 40.9132 19.5856 42.8979 24.3482C43.8383 26.605 43.0632 28.6633 43.8564 30.8849C44.0086 30.9957 44.5912 30.2619 44.7666 30.1369C46.8662 28.6421 49.7349 30.267 49.8941 32.7425C49.626 36.7744 50.2389 41.2437 49.8941 45.2231C49.6704 47.8086 47.1041 49.514 44.6316 48.6673C44.2163 48.5252 43.8665 48.2228 43.4533 48.0868V50.5008H6.43481V48.0868C5.99735 48.2359 5.62642 48.5534 5.18292 48.6946C2.77691 49.4626 0.551328 47.9285 -0.00305176 45.5709L-0.00305176 32.3928ZM31.8849 8.65322C32.9714 5.51241 30.9333 2.42704 27.6141 2.21033C25.3946 2.06619 22.1631 1.88375 20.513 3.56805C20.2751 3.81097 20.0524 4.29681 19.8115 4.47623C19.5282 4.68689 19.0222 4.7262 18.6725 4.94694C17.224 5.86218 17.7845 7.30659 18.103 8.65222H20.9192V14.7383C20.9192 15.3491 21.8879 16.3127 22.4503 16.5274C23.1882 16.8076 25.7222 16.7734 26.6072 16.7048C27.4599 16.6383 28.1826 16.2472 28.6291 15.5084C28.6947 15.4005 28.9668 14.7988 28.9668 14.7393V8.65322H31.8839H31.8849ZM9.65424 20.2216C10.3296 19.5533 11.1208 19.0816 11.9605 18.6482L11.266 10.8183C11.3385 10.4494 12.3586 9.74787 12.6166 9.35275C13.5409 7.93556 11.8536 6.39539 10.4636 7.30054C10.2197 7.4598 9.65424 8.12606 9.65424 8.40224V20.2216ZM19.3105 10.2629C17.1273 9.87689 17.1293 12.2597 19.3105 11.8727V10.2629ZM30.5775 11.8727C32.7608 12.2587 32.7588 9.87588 30.5775 10.2629V11.8727ZM26.9469 18.3196L22.9946 18.3035L22.7245 19.4515C24.1004 20.0956 25.6809 19.9918 27.0991 19.5291L26.9469 18.3206V18.3196ZM22.2286 26.3581C23.3152 23.2173 21.2771 20.1319 17.9578 19.9152C15.7978 19.7741 12.6096 19.6007 10.9596 21.1751C10.6693 21.4513 10.4132 21.9896 10.1552 22.1811C9.81551 22.4331 9.29339 22.4361 8.84686 22.7849C7.60404 23.7555 8.09895 25.1002 8.50819 26.3641C9.04342 26.2936 9.75604 26.4629 10.262 26.3117C10.8205 26.1454 12.405 24.6798 12.8303 24.6446C13.6206 25.0094 14.309 25.5265 15.1607 25.8309C15.6526 26.0073 16.8753 26.3581 17.35 26.3581H22.2286ZM29.1694 20.9262C28.8892 20.9796 28.5535 20.7568 28.3126 20.7689C28.0909 20.78 27.5557 21.0985 27.2593 21.1782C25.9127 21.541 24.6033 21.7003 23.2355 21.3284L23.8403 22.7849C24.1004 23.5922 24.2133 24.4399 24.1286 25.2886C24.0752 25.8259 23.6417 26.8439 23.6478 27.2139C23.6518 27.4769 24.053 27.9698 24.1165 28.3428C24.437 30.2146 22.662 31.4967 20.9212 31.1852C21.1198 33.0348 20.3618 34.569 18.8297 35.5729L19.1714 36.9306C21.3325 37.3782 23.2295 38.4264 24.9128 39.8204C25.9349 39.2026 26.7936 38.2873 27.9629 37.9245C26.0417 36.6111 24.7485 34.832 23.9663 32.6427C24.3181 32.2365 24.7404 31.8817 25.0277 31.4191C26.205 29.5211 25.4883 27.6735 25.8955 25.6475C26.2997 23.6346 27.597 22.1468 29.1704 20.9262H29.1694ZM38.4427 36.8994C39.1281 37.3056 39.8296 36.8339 40.4263 36.4579C41.6873 35.6646 42.7457 34.3855 43.3101 33.0026C43.0601 32.551 42.7245 32.1609 42.4947 31.6912C40.9454 28.5282 43.1166 25.1858 39.5212 22.5934C37.5083 21.1419 32.2044 21.0744 30.1068 22.3162C25.9611 24.7716 28.3136 28.4053 26.707 31.6912C26.4822 32.1509 26.1818 32.5621 25.8653 32.9603C26.3199 34.1527 27.221 35.3159 28.23 36.097C28.5566 36.35 29.6069 36.9961 29.9707 37.0748C30.2066 37.1262 30.5322 36.975 30.759 36.8984L31.1642 34.8794C28.0536 32.4039 28.2683 27.1453 31.1793 24.5932L31.2861 24.5881C34.0429 26.097 37.1222 26.8661 40.2298 27.2673C40.1844 29.3578 40.5584 31.4574 39.4123 33.3302C39.0303 33.9551 38.4396 34.4107 38.0193 34.9631L38.4427 36.8994ZM19.3105 27.9668C17.0436 28.1109 14.9067 27.6392 12.9221 26.5647C12.8082 26.5647 11.4484 27.4144 11.3637 27.5142C11.267 27.6301 11.273 27.6715 11.2559 27.8096C11.1501 28.6835 11.1521 31.5683 11.2861 32.419C11.4424 33.4088 12.4423 34.2998 13.424 34.4057C14.2445 34.4944 16.5336 34.5055 17.3238 34.3805C17.9689 34.2787 18.6937 33.7182 19.0112 33.1508C19.0636 33.058 19.3095 32.4815 19.3095 32.4432V27.9668H19.3105ZM38.611 28.6855C36.1485 28.2762 33.7939 27.5132 31.4958 26.5678C30.1764 28.5817 30.0594 32.04 32.154 33.5842C34.2788 35.1506 37.3158 34.3825 38.3086 31.9271C38.742 30.8536 38.6312 29.8184 38.612 28.6865L38.611 28.6855ZM9.65424 27.9668C7.47099 27.5808 7.47301 29.9636 9.65424 29.5765V27.9668ZM20.9202 29.5765C23.1035 29.9626 23.1015 27.5797 20.9202 27.9668V29.5765ZM3.41697 37.6241L3.23654 34.8784C3.69315 34.2081 4.72631 33.6961 4.81904 32.8353C4.96217 31.4916 3.45829 30.7216 2.36062 31.4876C2.13282 31.6469 1.60667 32.2839 1.60667 32.545V37.6251H3.41697V37.6241ZM48.2814 37.6241V32.544C48.2814 32.2829 47.7552 31.6459 47.5274 31.4866C46.4711 30.7498 44.9864 31.404 45.0579 32.7415C45.1073 33.6729 46.1657 34.1779 46.6505 34.8774L46.4701 37.6231H48.2804L48.2814 37.6241ZM44.6598 40.138L45.0388 35.5729C44.9239 35.4217 44.309 34.705 44.1588 34.8078C43.5379 36.1464 42.3516 37.0304 41.2398 37.9245L42.539 38.5877L44.6598 40.138ZM36.5074 35.715C35.194 36.099 34.0086 36.099 32.6943 35.715L32.3989 37.2098C33.8605 37.7319 35.2898 37.7299 36.7553 37.233C36.9751 37.0838 36.5326 35.9751 36.5074 35.715ZM17.2896 36.0245L13.3373 36.0083L13.0672 37.1564C14.4431 37.8005 16.0236 37.6967 17.4418 37.234L17.2896 36.0255V36.0245ZM27.3581 48.8901C27.3289 44.6476 24.6346 40.6712 20.7176 39.0836C20.3386 38.9304 18.9839 38.4557 18.6553 38.4728C18.4326 38.4839 17.8994 38.8014 17.602 38.882C15.827 39.3608 14.6618 39.3457 12.8948 38.8589C11.898 38.5847 12.2245 38.372 11.0624 38.6794C9.72077 39.0342 8.15641 39.8527 7.092 40.7448C6.85009 40.9473 5.6869 42.0763 5.60626 42.2769C5.38451 42.8232 5.63448 43.3987 5.61937 43.9491L4.07315 44.1638L3.61856 39.2328H1.60667V45.3189C1.60667 45.6717 2.13181 46.475 2.41908 46.7189C4.30801 48.3226 6.8894 46.2674 6.43481 44.061H8.04452V48.8891H13.2759C12.2558 47.5001 9.92337 46.1817 9.68045 44.3865C9.33472 41.8263 12.0411 39.9706 14.3141 41.2608C14.5257 41.3808 15.2152 42.0601 15.324 42.041C18.1151 38.8437 22.8515 42.6528 20.1129 46.0184C19.3004 47.0163 18.104 47.86 17.2996 48.8881H22.531V44.0599H24.1407V48.8881H27.3601L27.3581 48.8901ZM28.9678 48.8901H32.5894C31.5684 47.5011 29.2369 46.1817 28.994 44.3875C28.6483 41.8273 31.3547 39.9716 33.6276 41.2618C33.8393 41.3818 34.5288 42.0612 34.6376 42.042C37.4287 38.8447 42.1651 42.6538 39.4264 46.0194C38.614 47.0173 37.4176 47.861 36.6132 48.8891H41.8445V44.061H43.4543C43.0007 46.2674 45.5811 48.3226 47.47 46.7189C47.7573 46.475 48.2824 45.6717 48.2824 45.3189V39.2328H46.2705L45.8159 44.1638L44.2697 43.9491C44.2546 43.3987 44.5035 42.8222 44.2828 42.2769C44.2022 42.0763 43.039 40.9484 42.7971 40.7448C41.8204 39.9263 39.0485 38.3498 37.7945 38.5514C37.5073 38.5978 37.214 38.8074 36.9156 38.882C35.1617 39.3215 34.1286 39.3628 32.3657 38.9032C32.032 38.8165 31.4293 38.4698 31.1702 38.4778C30.7912 38.4899 29.6482 38.8951 29.243 39.0564C28.0979 39.511 26.9418 40.2448 26.0518 41.0945C27.9457 43.2072 28.9194 46.0648 28.9668 48.8901H28.9678ZM12.4453 42.4764C11.4565 42.6327 10.9767 43.7737 11.4444 44.6355L15.2505 48.4809C15.3724 48.504 15.4158 48.3982 15.4914 48.3408C16.1395 47.8428 18.488 45.5104 18.9618 44.8693C19.998 43.4683 18.4638 41.8475 17.0628 42.6689C16.5245 42.9844 15.9822 44.0418 15.3351 44.069C14.3292 44.1113 13.9643 42.2365 12.4443 42.4764H12.4453ZM31.7589 42.4764C30.7701 42.6327 30.2903 43.7737 30.758 44.6355L34.564 48.4809C34.686 48.504 34.7293 48.3982 34.8049 48.3408C35.453 47.8428 37.8016 45.5104 38.2753 44.8693C39.3115 43.4683 37.7774 41.8475 36.3763 42.6689C35.8381 42.9844 35.2958 44.0418 34.6487 44.069C33.6427 44.1113 33.2779 42.2365 31.7579 42.4764H31.7589Z" fill="black"/>
<path d="M23.3263 5.94386L24.8463 9.1008L23.3948 9.76706L21.8224 6.595C22.0774 6.50227 23.1589 5.82391 23.3263 5.94386Z" fill="black"/>
<path d="M26.5457 5.94386L28.0657 9.1008L26.6142 9.76706L25.0418 6.595C25.2968 6.50227 26.3784 5.82391 26.5457 5.94386Z" fill="black"/>
</svg>
