<svg width="50" height="51" viewBox="0 0 50 51" fill="none" xmlns="http://www.w3.org/2000/svg">
<path d="M27.0703 0.5L32.9985 3.75983C33.3563 3.75486 33.5194 3.35223 33.8465 3.15737C34.6209 2.69609 35.4978 2.67819 36.3269 3.0003C37.3171 3.38504 41.8574 6.02352 42.6487 6.69955C43.6677 7.56943 43.5991 8.58745 43.4858 9.82716L48.9914 13.0562C49.9269 14.0185 50.1536 15.2075 49.6108 16.4423C49.1714 17.4414 48.3144 19.0161 47.0081 18.3143L23.7468 4.86533C22.5946 4.07498 23.8145 2.19802 24.4885 1.44047C24.9567 0.914562 25.425 0.714737 26.0781 0.5L27.0703 0.5ZM24.6893 3.87217L47.3391 16.8956C47.7189 17.17 47.9992 16.485 48.1563 16.1788C48.5599 15.3934 48.7637 14.7154 47.9992 14.0493L27.3725 2.1334C25.9429 1.30626 25.1267 2.72193 24.6893 3.87217ZM42.1506 9.03283C42.2481 8.32698 42.0462 7.96113 41.4905 7.56048L35.6061 4.21814C35.1955 4.09685 34.6935 4.17539 34.4131 4.52036L42.1506 9.03382V9.03283Z" fill="black"/>
<path d="M40.6803 42.2546C42.096 42.701 43.4102 44.0133 43.614 45.5214C44.2712 50.3699 38.2237 52.388 35.7592 48.317C30.8034 48.1032 25.759 48.2842 20.7703 48.2255C19.1489 47.8925 18.5385 46.8536 18.3406 45.2967C17.7332 37.1894 16.9538 29.098 16.3543 20.9897C16.3136 20.4429 15.9706 19.0709 16.3802 18.6832L42.3077 18.6494C42.6338 18.9775 42.5602 19.4706 42.5473 19.8961C42.3723 25.3838 41.5144 31.3368 41.061 36.8633C40.9139 38.6578 40.7837 40.4582 40.6803 42.2536V42.2546ZM41.1595 19.9468H17.6447L19.8776 45.9409C20.0128 46.3297 20.2663 46.6011 20.6481 46.7581L35.3059 46.8347C35.0056 44.3344 36.819 42.3133 39.2616 42.0588L41.1595 19.9458V19.9468ZM39.1513 43.4874C35.5485 43.9268 36.0674 49.4016 39.7199 49.1163C43.447 48.825 42.8654 43.034 39.1513 43.4874Z" fill="black"/>
<path d="M10.0812 3.99123L14.5668 5.11562C15.6296 5.48345 15.4158 6.58597 15.1156 7.44592C14.879 8.12393 14.5032 8.14083 14.36 8.47685C13.3788 10.7704 16.0064 13.1255 15.8622 15.7342C15.6654 19.3151 12.4701 19.8152 12.0337 22.6207C11.8041 24.099 12.1958 24.6816 12.4562 25.9789C12.9513 28.4544 12.1252 32.3992 8.96376 32.427C8.13762 32.434 2.62205 30.9507 1.83766 30.5451C-0.604975 29.2825 -0.092986 26.2553 1.05924 24.2451C1.92117 22.741 3.54065 22.0441 4.00492 20.2457C4.73164 17.4292 2.5276 15.7789 4.03375 12.6344C5.17802 10.2455 7.65148 10.0764 8.68639 7.86147C9.2113 6.73808 8.75499 6.88819 8.81364 6.00837C8.86335 5.2538 9.19242 4.08468 10.0812 3.99023V3.99123ZM13.8649 6.36229L10.459 5.46954L10.2074 6.00936L13.6363 6.94585C13.9306 6.94088 13.9017 6.56509 13.8659 6.36328L13.8649 6.36229ZM13.2784 12.1075C12.7813 10.835 12.673 9.57539 12.9414 8.23527C12.5546 8.10603 10.5097 7.43995 10.2989 7.58609C9.87938 8.78802 9.18744 9.93925 8.12072 10.668C9.71534 11.4931 11.5128 11.848 13.2794 12.1065L13.2784 12.1075ZM5.06966 16.448C5.16112 16.5593 6.82235 17.2383 7.1027 17.3417C8.25195 17.7623 9.57019 18.1311 10.7771 18.3299C11.2444 18.4075 12.5407 18.6311 12.9294 18.5546C13.687 18.4055 14.3899 16.5076 14.4575 15.8167C14.5032 15.3484 14.4058 13.7856 13.9514 13.5689C13.691 13.4446 12.6759 13.4397 12.2663 13.3691C10.2989 13.0301 8.51241 12.4475 6.69908 11.6323C5.62042 12.2725 4.85492 13.7956 4.83802 15.0333C4.83504 15.263 4.96627 16.3217 5.06966 16.448ZM5.53989 18.2603V19.7983C5.53989 22.2449 2.92427 23.4945 2.07924 25.2671C1.45491 26.5774 0.942923 28.6383 2.61012 29.375C3.30404 29.6822 8.33645 31.0402 8.94686 31.0223C10.8934 30.9656 11.3289 28.3778 11.1986 26.8389C11.133 26.0625 10.6936 25.3059 10.6101 24.5503C10.4222 22.8613 10.7682 21.212 11.7901 19.849C9.61692 19.7098 7.57095 18.9592 5.5389 18.2603H5.53989Z" fill="black"/>
<path d="M20.1042 8.2684C21.2495 8.16202 23.1235 8.50003 24.3274 8.65015C25.6655 8.81618 28.475 9.06571 29.5825 9.64629C31.6613 10.7359 29.997 12.2689 29.2723 13.4678C28.637 14.5186 28.2881 15.9015 26.9261 16.2813C25.1048 16.7893 23.886 15.5088 22.2585 15.476C20.7415 15.4452 19.7881 16.2574 18.2094 15.3647C17.0164 14.6896 16.7788 13.7581 17.2967 12.5065C17.4319 12.1804 17.8704 11.6704 17.925 11.3403C17.9797 11.0103 17.7302 10.5669 17.7501 10.1881C17.8117 8.9643 19.0355 8.36881 20.1042 8.26939V8.2684ZM20.1012 9.65425C18.6001 9.85606 19.466 10.6912 19.3079 11.6386C19.1498 12.586 17.6506 13.5891 19.0444 14.2313C19.9799 14.6618 21.3757 14.0325 22.4564 14.0951C23.7249 14.1687 25.5045 15.2742 26.5801 14.9422C27.2532 14.7344 27.8248 13.1646 28.1817 12.5751C28.9641 11.2837 30.0338 11.0202 27.7851 10.551C26.2193 10.2239 24.2508 10.0092 22.6423 9.83916C21.9354 9.7646 20.7494 9.56776 20.1002 9.65524L20.1012 9.65425Z" fill="black"/>
<path d="M33.2212 29.1744C33.075 28.2409 34.4738 28.056 34.606 28.9338C34.6478 29.2072 34.3883 31.4301 34.2879 31.6787C34.2004 31.8944 33.8922 32.137 33.6616 32.1509C33.4588 32.1628 31.0271 31.114 30.8938 30.9569C30.3391 30.3018 31.2458 29.3822 31.883 29.9677C31.9576 29.9836 31.9467 29.8713 31.9308 29.8216C31.8781 29.6605 30.8799 28.0003 30.7417 27.8353C30.0866 27.0559 28.8757 26.9743 28.14 27.6862C27.7066 28.1057 27.1509 29.6079 26.7502 29.7957C26.0831 30.1089 25.5264 29.5412 25.8078 28.8543C26.6379 26.8282 28.3478 25.0785 30.695 26.0965C32.1077 26.7089 32.3036 28.1087 33.2212 29.1744Z" fill="black"/>
<path d="M24.6883 33.6391L23.4516 35.7249C23.0361 36.5132 23.6435 37.8364 24.4875 38.0571C25.2182 38.248 27.0703 37.7877 27.3934 38.5264C27.5018 38.7739 27.4213 39.3108 27.1469 39.4271C26.8566 39.5504 25.1407 39.5315 24.7351 39.4957C23.554 39.3933 22.5837 38.6039 22.1602 37.5064C21.4752 35.7328 22.5171 34.5269 23.3979 33.0913C23.4268 32.816 23.0619 33.145 22.7984 33.1013C22.1284 32.9909 21.9872 32.1707 22.5121 31.8089C22.7219 31.6647 24.5144 30.8803 24.7848 30.8068C25.1775 30.7004 25.5662 30.7412 25.7322 31.1547C25.8435 31.4331 26.1289 33.8191 26.0563 34.0636C25.8107 34.8878 24.4915 34.5358 24.6873 33.6381L24.6883 33.6391Z" fill="black"/>
<path d="M31.535 39.4925C32.2558 39.9518 32.1027 41.107 31.196 40.9818C31.0439 40.9609 29.4175 39.7788 29.2067 39.589C28.7752 39.2012 28.4183 38.8533 28.9045 38.3005C29.0228 38.1653 30.9783 36.7646 31.1105 36.7347C31.9903 36.5329 32.3224 37.5768 31.6344 38.1047H34.1646C34.4966 38.1047 35.1229 37.4436 35.2551 37.1115C35.9133 35.4642 34.2182 34.7444 34.3177 33.5982C34.3664 33.0355 35.103 32.8615 35.5057 33.29C35.8357 33.6409 36.7215 35.3996 36.7851 35.8808C36.9472 37.1016 36.4342 38.2797 35.4371 38.9805C35.2551 39.1088 34.5254 39.4935 34.3634 39.4935H31.536L31.535 39.4925Z" fill="black"/>
<path d="M39.0488 44.4772C40.9855 44.1183 42.1407 46.4725 40.6981 47.7132C39.5807 48.6736 37.836 48.0045 37.6292 46.5411C37.5079 45.6772 38.165 44.6413 39.0488 44.4772ZM39.8452 45.9665C39.4217 45.5479 38.6661 46.2259 39.1244 46.6375C39.6086 47.072 40.2458 46.3612 39.8452 45.9665Z" fill="black"/>
</svg>
