<svg width="51" height="51" viewBox="0 0 51 51" fill="none" xmlns="http://www.w3.org/2000/svg">
<path d="M50.4902 33.106C50.1743 35.6002 48.1995 38.0818 46.2823 39.5881C41.9815 42.2036 37.7883 45.5478 33.4366 48.0235C30.8709 49.4838 28.1556 49.8799 25.2829 49.0886L16.3741 45.9909L11.8864 50.3905C11.2379 50.7202 10.6403 50.2712 10.6755 49.5797L15.6874 44.4308C16.0943 44.1599 16.2733 44.3017 16.691 44.4063C22.1597 45.7718 26.9222 49.8203 32.5944 46.6932C36.951 44.2919 41.1706 40.8606 45.4607 38.2784C47.0639 36.998 48.3393 35.3234 48.8313 33.3026H46.7323C42.6447 35.6452 38.6705 38.2715 34.5467 40.5437C34.1144 40.7824 33.6674 41.1433 33.1686 41.1149C28.1625 40.0185 23.0263 39.2761 18.1054 37.9145C16.1579 36.6214 16.7644 33.7702 19.0336 33.328C22.907 33.0258 27.1951 33.643 31.0196 33.3065C33.0649 33.1266 33.0081 30.3311 31.0196 30.1746L12.9663 30.1892C12.1349 30.333 11.3983 30.645 10.7586 31.2026L1.77258 40.1789C0.892259 40.7344 0.0716087 39.7074 0.749452 38.9611C3.85697 36.2527 6.65246 32.5397 9.78052 29.932C10.654 29.2033 11.6448 28.7944 12.7707 28.6272C19.1285 28.6819 25.5274 28.457 31.8637 28.7416C35.163 29.8215 34.6563 34.5879 31.1155 34.8666C27.3193 35.165 23.1418 34.6319 19.3055 34.8686C18.2511 35.1239 18.2795 36.5911 19.3838 36.7319L32.8741 39.4541L33.5089 39.3093L46.2227 31.8149L47.0707 31.7357L47.2693 30.958H45.1702L41.3193 33.2606C40.485 33.3173 40.1084 32.436 40.6943 31.8511C42.0187 31.2515 43.3704 30.0454 44.6596 29.4713C44.8455 29.3881 45.0127 29.4097 45.2035 29.3803L45.7072 27.8339H43.7059C43.4057 27.8339 40.6131 29.7999 39.9675 30.0543C39.095 30.3976 38.515 29.4762 39.0735 28.767L43.4105 26.2699C44.4346 26.3618 45.6377 26.1545 46.6364 26.2699C48.0263 26.4313 47.0286 28.5626 46.878 29.396H48.3912C48.445 29.396 48.7286 29.617 48.7795 29.6904C49.1218 30.1824 48.7922 31.1908 48.6347 31.7376C49.3331 31.7816 50.0785 31.5136 50.4893 32.2267C50.4648 32.5084 50.5235 32.8321 50.4893 33.105L50.4902 33.106Z" fill="black"/>
<path d="M15.6386 0.5C17.2671 1.19056 18.9789 1.77939 20.6935 2.22933C23.6338 3.0001 26.1143 2.56385 28.5254 4.74508C29.483 5.6117 30.3966 6.94098 30.6724 8.21255C30.9296 8.27417 30.9453 7.90542 31.0813 7.69414C32.7949 5.04048 37.6005 3.25245 40.6757 3.52829C41.0895 3.56546 41.7106 3.6574 41.8534 4.10734C42.004 4.57978 41.4103 7.23051 41.3242 7.98073C41.0259 10.5659 41.5071 12.6718 39.2633 14.5107C37.8108 15.7011 34.8236 16.4777 33.0121 15.976C31.6143 15.5886 30.646 14.2456 30.2792 12.8988C29.7813 13.5101 29.0174 14.8188 28.2995 15.1651C28.0402 15.2903 27.5747 15.35 27.2744 15.4086C17.7298 17.271 13.8417 10.5591 14.4619 1.91242C14.501 1.37151 14.5489 0.791482 15.0517 0.500978H15.6376L15.6386 0.5ZM26.1818 14.0686C26.2552 14.007 25.7221 13.3761 25.6468 13.2871C23.891 11.2193 21.9543 9.28751 20.1829 7.23148C19.6303 6.39225 20.5595 5.53541 21.3518 6.16043L27.8906 13.4827C30.7692 10.7293 29.1377 6.08414 25.6477 4.79399C24.5875 4.40176 23.7101 4.46729 22.6478 4.27949C20.3795 3.87944 18.1964 3.10476 16.0308 2.35551C15.8782 6.00784 16.3966 10.8633 19.7858 12.9985C21.6893 14.1987 23.9967 14.3043 26.1818 14.0696V14.0686ZM40.1426 5.0884C37.265 5.2762 33.1754 6.34921 31.9929 9.28849C31.4774 10.5689 31.4314 12.3393 32.2834 13.4827L35.8516 8.55978C36.6175 8.05507 37.487 8.75052 37.0566 9.56921C36.3367 10.9376 34.806 12.5682 33.912 13.9414C33.8445 14.0451 33.5168 14.4814 33.6019 14.5577C35.6227 14.679 38.5679 13.9581 39.3386 11.8512C39.6947 10.8789 39.544 9.76973 39.6546 8.75052C39.7866 7.5259 40.0204 6.314 40.1417 5.0884H40.1426Z" fill="black"/>
<path d="M24.0143 23.9585C25.4022 23.8176 26.8636 24.1287 28.0667 24.827C28.7729 25.2369 30.5922 26.5681 30.0757 27.4817C29.4292 28.6251 28.4559 27.0494 27.9864 26.665C26.0605 25.0872 23.2953 25.1068 21.3978 26.7099C20.8471 27.1755 20.447 28.2016 19.6039 27.7243C18.3294 27.0034 20.672 25.2418 21.3088 24.8632C22.1001 24.3947 23.0948 24.0504 24.0143 23.9565V23.9585Z" fill="black"/>
<path d="M29.9622 15.358C30.4846 15.2435 30.9296 15.5301 30.9678 16.0691C30.7506 18.5682 31.2504 21.5387 30.9678 23.9811C30.8533 24.9739 29.5172 24.9739 29.4018 23.9811C29.1181 21.5407 29.6199 18.5682 29.4018 16.0691C29.4076 15.7463 29.6424 15.4284 29.9632 15.358H29.9622Z" fill="black"/>
<path d="M31.5233 25.5125C32.7235 25.2396 34.6015 26.1815 35.5024 26.9582C35.9924 27.3807 37.2464 28.8235 37.22 29.4426C37.1896 30.1831 36.281 30.4442 35.8017 29.8798C34.9057 28.8244 34.6348 27.8649 33.1108 27.2995C32.5934 27.1078 31.5429 27.1069 31.2602 26.9044C30.7565 26.5425 30.9052 25.6524 31.5224 25.5125H31.5233Z" fill="black"/>
<path d="M35.8183 30.589C36.6135 30.409 37.8577 30.9881 38.382 31.5955C38.9552 32.2587 39.8335 34.5426 38.337 34.48C37.2425 34.434 37.9497 32.8974 36.7925 32.3066C36.4003 32.1061 36.0824 32.1951 35.743 32.0875C35.0642 31.8723 35.1004 30.7524 35.8183 30.59V30.589Z" fill="black"/>
</svg>
