<svg width="51" height="51" viewBox="0 0 51 51" fill="none" xmlns="http://www.w3.org/2000/svg">
<g clip-path="url(#clip0_118_228)">
<path d="M50.4482 28.1738V29.1481C50.3018 29.5015 50.1534 29.8462 49.9777 30.1879C48.8998 32.287 47.5193 34.8215 46.2745 36.8141C44.1891 40.1522 39.618 40.407 36.4108 42.2483C35.7547 42.6252 35.5116 43.1817 35.4433 43.9119C35.2929 45.519 35.6532 47.5155 35.4335 49.0659C35.3281 49.8118 34.6593 50.3078 33.9319 50.3898C32.692 50.5294 29.0132 50.546 27.8016 50.381C27.1075 50.2863 26.3928 49.721 26.3752 48.9819C26.6906 44.8004 25.9701 40.034 26.3811 35.9208C26.5432 34.3011 27.7977 32.9206 29.3022 32.411C32.5788 31.3019 36.5289 30.9436 39.8787 29.9253C41.2357 29.9487 41.8645 30.5198 42.4376 31.6543C42.4835 31.7451 42.4083 31.8125 42.6026 31.7773L46.1105 27.1974C47.5662 25.6197 49.7775 26.1957 50.4473 28.1728L50.4482 28.1738ZM33.7855 48.734V43.5204C33.7855 42.6623 34.6095 41.4311 35.3115 40.9547C37.7327 39.7148 40.4879 38.9318 42.913 37.7407C43.8942 37.2584 44.2281 36.9596 44.812 36.035C46.211 33.8198 47.3221 31.2638 48.7143 29.0241C49.0316 28.1601 48.0856 27.6153 47.4217 28.2187L42.996 34.0238C42.6973 34.2747 42.3331 34.5149 41.967 34.6516C39.1279 35.7148 35.4628 36.0145 32.5417 37.0153C31.4121 37.3941 30.7999 35.9521 31.8778 35.4756C34.4787 34.635 37.5062 34.306 40.0632 33.4293C41.4271 32.9616 40.9731 31.5616 39.9812 31.5918L29.6654 34.0424C29.0669 34.182 28.035 35.3633 28.035 35.9198V48.733H33.7835L33.7855 48.734Z" fill="black"/>
<path d="M25.7954 0.5C26.7629 0.802658 26.7717 1.72527 27.1427 2.51414C30.0023 8.59365 35.9305 11.5382 36.323 18.9611C36.7789 27.582 27.581 33.3471 20.0781 28.9693C15.0754 26.0511 13.5865 19.9706 15.587 14.7005C17.1843 10.4936 21.0827 7.68763 23.215 3.81556C23.6494 3.02573 24.039 1.65693 24.4471 1.05259C24.6453 0.758723 24.863 0.706002 25.1129 0.500976H25.7954V0.5ZM25.4068 2.9359C23.3604 8.58193 17.2985 11.6681 16.453 17.9048C15.8369 22.4495 18.3529 27.0235 22.8215 28.3699C28.9469 30.2151 34.9717 25.5425 34.6661 19.1564C34.3645 12.8455 29.5571 10.0542 26.6555 5.14531C26.2259 4.41893 25.9135 3.59296 25.4068 2.9359Z" fill="black"/>
<path d="M8.54776 31.8758C8.74986 30.6739 9.94975 29.9046 11.1272 29.9251C14.4847 30.9297 18.4202 31.3007 21.7036 32.4108C23.254 32.9351 24.4851 34.3488 24.6296 36.0134C24.9908 40.1783 24.3504 44.8568 24.6286 49.0765C24.5574 49.6662 24.0653 50.1397 23.5108 50.2969C22.719 50.5214 18.0522 50.4999 17.0749 50.3896C16.3505 50.3076 15.6788 49.8136 15.5733 49.0657C15.3536 47.5144 15.7139 45.5188 15.5636 43.9118C15.4698 42.9081 15.1359 42.5205 14.266 42.0909C12.1162 41.0277 9.61292 40.3141 7.44257 39.2674C6.05035 38.5957 5.54169 38.1154 4.73232 36.813C3.30495 34.5157 2.11775 31.9412 0.735289 29.6039C-0.102389 27.5185 2.09725 25.5492 4.09772 26.5344C5.00959 26.9835 7.14577 30.1965 7.92585 31.1836C8.10939 31.4149 8.31344 31.703 8.54776 31.8758ZM22.9699 48.7338V35.9206C22.9699 35.3964 21.8579 34.1106 21.2682 34.0168L10.9339 31.6014C10.0474 31.6922 9.79158 32.7681 10.5043 33.2826L19.1271 35.4754C20.1942 35.947 19.5733 37.3939 18.4632 37.0151C15.546 35.9812 11.6973 35.7166 8.88556 34.6085C8.59462 34.4933 8.23241 34.2482 8.01079 34.0217L3.53243 28.1716C2.8783 27.6142 1.96545 28.2204 2.29153 29.023C3.63299 31.2236 4.74111 33.6605 6.09623 35.8396C6.74548 36.8833 6.9632 37.1889 8.09377 37.7395C9.99954 38.669 15.176 40.2154 16.3466 41.5696C16.7254 42.008 17.2213 42.9462 17.2213 43.5203V48.7338H22.9699Z" fill="black"/>
<path d="M19.4347 20.4941C20.4149 20.2774 20.6902 21.653 21.154 22.3393C21.6734 23.1087 22.4251 23.794 23.2325 24.2558C23.7519 24.5536 24.6726 24.6815 24.7204 25.4011C24.7487 25.8365 24.3192 26.3032 23.8974 26.311C23.4756 26.3188 22.2943 25.6422 21.9067 25.3864C21.0514 24.8201 20.2362 23.9922 19.6748 23.136C19.2824 22.5365 18.2172 20.7636 19.4347 20.4941Z" fill="black"/>
</g>
<defs>
<clipPath id="clip0_118_228">
<rect width="49.8965" height="50" fill="white" transform="translate(0.551758 0.5)"/>
</clipPath>
</defs>
</svg>
